HIERARCHY
ROOT Hips
{
	OFFSET 0.00000 0.00000 0.00000
	CHANNELS 6 Xposition Yposition Zposition Zrotation Yrotation Xrotation 
	JOINT LHipJoint
	{
		OFFSET 0 0 0
		CHANNELS 3 Zrotation Yrotation Xrotation
		JOINT LeftHip
		{
			OFFSET 1.76014 -1.80163 0.38499
			CHANNELS 3 Zrotation Yrotation Xrotation
			JOINT LeftKnee
			{
				OFFSET 2.46817 -6.78126 0.00000
				CHANNELS 3 Zrotation Yrotation Xrotation
				JOINT LeftAnkle
				{
					OFFSET 2.79348 -7.67503 0.00000
					CHANNELS 3 Zrotation Yrotation Xrotation
					JOINT LeftToe
					{
						OFFSET 0.09421 -0.25885 1.91403
						CHANNELS 3 Zrotation Yrotation Xrotation
						End Site
						{
							OFFSET 0.00000 -0.00000 0.97975
						}
					}
				}
			}
		}
	}
	JOINT RHipJoint
	{
		OFFSET 0 0 0
		CHANNELS 3 Zrotation Yrotation Xrotation
		JOINT RightHip
		{
			OFFSET -1.77926 -1.80163 0.38499
			CHANNELS 3 Zrotation Yrotation Xrotation
			JOINT RightKnee
			{
				OFFSET -2.51996 -6.92353 0.00000
				CHANNELS 3 Zrotation Yrotation Xrotation
				JOINT RightAnkle
				{
					OFFSET -2.76109 -7.58603 0.00000
					CHANNELS 3 Zrotation Yrotation Xrotation
					JOINT RightToe
					{
						OFFSET -0.08067 -0.22163 1.86812
						CHANNELS 3 Zrotation Yrotation Xrotation
						End Site
						{
							OFFSET -0.00000 -0.00000 0.95558
						}
					}
				}
			}
		}
	}
	JOINT lowerback
	{
		OFFSET 0 0 0
		CHANNELS 3 Zrotation Yrotation Xrotation
		JOINT Chest
		{
			OFFSET 0.05537 1.92033 -0.03713
			CHANNELS 3 Zrotation Yrotation Xrotation
			JOINT Chest2
			{
				OFFSET 0.04452 1.90073 0.10860
				CHANNELS 3 Zrotation Yrotation Xrotation
				JOINT lowerneck
				{
					OFFSET 0 0 0
					CHANNELS 3 Zrotation Yrotation Xrotation
					JOINT Neck
					{
						OFFSET 0.00903 1.74649 0.02074
						CHANNELS 3 Zrotation Yrotation Xrotation
						JOINT Head
						{
							OFFSET -0.08608 1.67844 -0.12081
							CHANNELS 3 Zrotation Yrotation Xrotation
							End Site
							{
								OFFSET -0.03521 1.83380 -0.05059
							}
						}
					}
				}
				JOINT LeftCollar
				{
					OFFSET 0 0 0
					CHANNELS 3 Zrotation Yrotation Xrotation
					JOINT LeftShoulder
					{
						OFFSET 3.28197 0.84325 -0.19106
CHANNELS 3 Zrotation Xrotation Yrotation
						JOINT LeftElbow
						{
OFFSET 0 -5.243180 -0.000000
CHANNELS 3 Zrotation Xrotation Yrotation
							JOINT LeftWrist
							{
OFFSET 0 -2.989990 0.000000
CHANNELS 3 Zrotation Xrotation Yrotation
								JOINT lhand
								{
									OFFSET 0 0 0
CHANNELS 3 Zrotation Xrotation Yrotation
									JOINT LFingers
									{
OFFSET 0 -0.726740 0.000000
CHANNELS 3 Zrotation Xrotation Yrotation
										End Site
										{
OFFSET 0 -0.585920 0.000000
										}
									}
								}
								JOINT LThumb
								{
OFFSET 0 0.000000 0.000000
CHANNELS 3 Zrotation Xrotation Yrotation
									End Site
									{
OFFSET 0 -0.594870 0.594870
									}
								}
							}
						}
					}
				}
				JOINT RightCollar
				{
					OFFSET 0 0 0
					CHANNELS 3 Zrotation Yrotation Xrotation
					JOINT RightShoulder
					{
						OFFSET -3.30963 0.78377 0.14264
CHANNELS 3 Zrotation Xrotation Yrotation
						JOINT RightElbow
						{
OFFSET 0 -5.370450 0.000000
CHANNELS 3 Zrotation Xrotation Yrotation
							JOINT RightWrist
							{
OFFSET 0 -2.927920 0.000000
CHANNELS 3 Zrotation Xrotation Yrotation
								JOINT rhand
								{
									OFFSET 0 0 0
CHANNELS 3 Zrotation Xrotation Yrotation
									JOINT RFingers
									{
OFFSET 0 -0.784500 0.000000
CHANNELS 3 Zrotation Xrotation Yrotation
										End Site
										{
OFFSET 0 -0.632480 0.000000
										}
									}
								}
								JOINT RThumb
								{
OFFSET 0 0.000000 0.000000
CHANNELS 3 Zrotation Xrotation Yrotation
									End Site
									{
OFFSET 0 -0.642140 0.642140
									}
								}
							}
						}
					}
				}
			}
		}
	}
}
MOTION
Frames: 7
Frame Time: 0.008333333333333333
1.274300 15.997200 -1.148300 3.513700 -9.208200 8.676600 0.000000 0.000000 0.000000 -23.122000 4.554200 -49.011100 10.948600 17.909800 62.614600 1.316100 -7.839500 -20.513500 0.417700 -4.148600 -11.495100 0.000000 0.000000 0.000000 9.024400 -2.588000 -53.913300 -10.861900 -17.866800 62.332200 0.128000 14.903600 -8.968000 -0.167700 2.638400 -7.273600 9.632100 -1.216700 23.945900 6.673400 0.158700 14.424300 1.798300 0.323700 2.815700 4.963800 -0.246000 0.795600 -17.275600 -3.150300 -19.736200 -6.316000 -0.701700 -6.344600 0.000000 0.000000 0.000000 37.433700 -19.606800 -53.911200 34.792900 -44.663700 14.667600 -11.954700 -57.697700 -19.709800 0.000000 0.000000 0.000000 -7.125000 0.000000 0.000000 -37.130400 46.084400 1.154800 0.000000 0.000000 0.000000 -37.471100 -18.894600 15.466800 -34.838200 -44.696300 -14.699500 0.749400 -24.209500 -6.830300 0.000000 0.000000 0.000000 7.125000 0.000000 -0.000000 19.928800 23.182800 11.142500
1.263426 15.989775 -1.181097 2.764775 -8.551405 10.034072 0.000000 0.000000 0.000000 -22.290770 4.008872 -50.795019 11.074269 17.971230 63.022341 1.258093 -8.525096 -20.085311 0.276531 -3.380279 -9.339438 0.000000 0.000000 0.000000 10.024250 -2.496388 -55.274598 -10.803803 -17.837719 62.142672 0.094623 14.424593 -8.993836 -0.247668 3.201726 -8.840901 9.519956 -1.449147 24.840490 6.726349 -0.018697 14.388797 1.965148 0.207953 2.340123 4.788158 0.263267 0.531908 -17.493443 -2.556373 -20.340887 -6.414361 -0.366003 -6.413350 0.000000 0.000000 0.000000 39.781464 -23.311168 -55.269499 37.282501 -46.374639 16.444300 -11.493183 -51.344334 -21.360424 0.000000 0.000000 0.000000 -7.125000 0.000000 0.000000 -37.740075 47.504810 2.706711 0.000000 0.000000 0.000000 -39.259577 -19.103665 15.975866 -36.611045 -45.928662 -15.960020 -0.579650 -18.309272 -6.658322 0.000000 0.000000 0.000000 7.125000 0.000000 0.000000 19.024057 23.349386 10.497433
1.260767 15.977283 -1.227406 3.038342 -7.756146 11.736432 0.000000 0.000000 0.000000 -22.726807 3.266416 -52.882310 11.062625 17.965598 62.984706 1.109694 -9.795919 -19.018157 0.129692 -2.319649 -6.389874 0.000000 0.000000 0.000000 9.962877 -2.977434 -57.595620 -10.872022 -17.871861 62.365320 0.144937 14.448334 -8.375566 -0.142426 2.428737 -6.692232 9.413564 -1.567074 24.742798 6.406723 -0.209666 14.537127 1.716627 0.135372 2.544565 4.285599 0.469110 0.922519 -17.249917 -2.395082 -21.408872 -6.297450 -0.198051 -6.806359 0.000000 0.000000 0.000000 43.854768 -29.198622 -58.979365 39.404607 -47.712954 17.997603 -10.238827 -40.258704 -22.409028 0.000000 0.000000 0.000000 -7.125000 0.000000 0.000000 -37.352667 48.546291 3.758383 0.000000 0.000000 0.000000 -42.688900 -20.385367 17.380670 -38.410830 -47.099670 -17.265973 -1.219515 -11.962441 -5.534650 0.000000 0.000000 0.000000 7.125000 0.000000 0.000000 18.731468 24.414527 9.826344
1.287653 15.991045 -1.287083 3.369562 -7.536394 13.414094 0.000000 0.000000 0.000000 -23.570793 3.122703 -54.963371 10.912572 17.892032 62.497385 0.957388 -10.817202 -17.933525 0.048102 -1.415560 -3.892987 0.000000 0.000000 0.000000 9.861911 -3.250967 -59.784945 -10.765586 -17.818428 62.017850 0.222569 14.541903 -7.419901 -0.108384 2.122715 -5.844886 9.710604 -1.420708 24.659382 6.017526 -0.046765 15.098005 1.102258 0.286368 3.250244 4.380067 0.633827 0.086719 -17.861874 -2.241667 -21.312971 -6.526560 -0.117825 -6.603722 0.000000 0.000000 0.000000 49.216564 -38.136628 -63.230052 39.231454 -47.607678 17.869636 -11.564906 -24.308715 -21.168972 0.000000 0.000000 0.000000 -7.125000 0.000000 0.000000 -37.680650 47.337532 2.523301 0.000000 0.000000 0.000000 -48.387785 -23.345456 20.470206 -38.957070 -47.439677 -17.667204 0.277660 -6.285697 -4.296206 0.000000 0.000000 0.000000 7.125000 0.000000 0.000000 19.989688 25.569282 9.992561
1.335893 16.036814 -1.370010 3.667878 -7.755560 15.329641 0.000000 0.000000 0.000000 -24.573334 3.034161 -57.179324 10.599141 17.733264 61.472735 0.739859 -11.707567 -16.278573 0.001316 -0.234316 -0.643808 0.000000 0.000000 0.000000 9.749750 -3.035038 -61.997667 -10.457794 -17.659315 61.007638 0.292746 14.265419 -6.114708 -0.139996 2.410255 -6.640899 9.575316 -1.347555 25.381918 5.627326 0.095998 15.232560 0.725600 0.363007 3.065154 5.137077 0.992165 0.002123 -18.891928 -1.699585 -20.284933 -7.001068 0.125182 -6.184601 0.000000 0.000000 0.000000 54.645368 -48.558861 -67.894677 34.650749 -44.558856 14.568555 -11.456358 -7.806442 -17.916281 0.000000 0.000000 0.000000 -7.125000 0.000000 0.000000 -35.728721 44.659159 -0.347340 0.000000 0.000000 0.000000 -55.660291 -28.939828 26.966555 -37.003877 -46.190680 -16.242989 3.542104 -1.727447 -4.545434 0.000000 0.000000 0.000000 7.125000 0.000000 0.000000 22.254235 25.277944 11.466607
1.409212 16.109000 -1.466451 3.877847 -9.366082 17.778361 0.000000 0.000000 0.000000 -25.944087 3.343090 -59.823810 10.142148 17.488999 59.962508 0.618901 -11.707181 -15.179971 0.005354 0.471364 1.295225 0.000000 0.000000 0.000000 8.996351 -0.735771 -64.109661 -9.904611 -17.355784 59.168909 0.275277 13.066237 -5.073001 -0.307184 3.562874 -9.850054 9.633237 -1.272899 26.404548 4.913051 0.301643 15.207377 -0.134762 0.480014 2.574264 4.030735 1.007719 0.003113 -18.216057 -1.417074 -18.837350 -6.513117 0.239532 -5.704572 0.000000 0.000000 0.000000 58.571409 -58.115976 -69.229808 28.492847 -39.565260 10.436433 -14.411906 3.598670 -16.311604 0.000000 0.000000 0.000000 -7.125000 0.000000 0.000000 -37.199482 42.954891 -2.217659 0.000000 0.000000 0.000000 -62.651771 -37.568723 33.604166 -33.398900 -43.634054 -13.696681 13.662902 3.649399 -6.289640 0.000000 0.000000 0.000000 7.125000 0.000000 0.000000 28.647226 23.304579 17.171798
1.480641 16.199162 -1.558886 2.667940 -13.414659 21.441652 0.000000 0.000000 0.000000 -26.544938 5.062174 -64.309490 9.824177 17.309733 58.899031 0.570018 -11.216671 -14.559027 0.001596 0.250723 0.688897 0.000000 0.000000 0.000000 7.769993 6.060043 -65.762636 -8.955111 -16.778675 55.934571 0.177893 10.275623 -3.791542 -0.291841 3.474073 -9.601522 9.240437 -0.895992 27.984890 3.673928 0.809301 14.917975 -1.412144 0.697883 1.546310 2.256180 1.374932 -0.366966 -16.624469 -0.625291 -18.044135 -5.656561 0.597098 -5.326084 0.000000 0.000000 0.000000 62.030912 -63.251423 -62.495220 24.776604 -35.974625 8.158324 -16.802821 7.476804 -17.643420 0.000000 0.000000 0.000000 -7.125000 0.000000 0.000000 -39.748244 43.751021 -1.479918 0.000000 0.000000 0.000000 -66.480909 -49.288790 40.487915 -29.208545 -40.204611 -10.895325 21.176494 3.258865 -6.342745 0.000000 0.000000 0.000000 7.125000 0.000000 0.000000 33.125820 22.640344 21.640123
